<mxfile host="app.diagrams.net" modified="2023-11-02T06:43:25.739Z" agent="Mozilla/5.0 (Macintosh; Intel Mac OS X 10_15_7) AppleWebKit/537.36 (KHTML, like Gecko) Chrome/118.0.0.0 Safari/537.36" version="21.8.2" etag="GHRv3snkiGGhDUMJVSNh" type="github">
  <diagram name="第 1 页" id="RATa3XMQ9v-Yd4ltZImi">
    <mxGraphModel>
      <root>
        <mxCell id="0" />
        <mxCell id="1" parent="0" />
      </root>
    </mxGraphModel>
  </diagram>
</mxfile>
